<?xml version="1.0" standalone="no"?>
<!DOCTYPE svg PUBLIC "-//W3C//DTD SVG 20010904//EN"
 "http://www.w3.org/TR/2001/REC-SVG-20010904/DTD/svg10.dtd">
<svg version="1.0" xmlns="http://www.w3.org/2000/svg"
 width="1024.000000pt" height="1024.000000pt" viewBox="0 0 1024.000000 1024.000000"
 preserveAspectRatio="xMidYMid meet">
<metadata>
Created by potrace 1.11, written by Peter Selinger 2001-2013
</metadata>
<g transform="translate(0.000000,1024.000000) scale(0.100000,-0.100000)"
fill="#000000" stroke="none">
<path d="M857 10230 c-132 -23 -281 -82 -392 -155 -223 -148 -353 -330 -438
-610 l-22 -70 -3 -4240 c-2 -3849 -1 -4247 13 -4320 33 -159 95 -299 192 -430
135 -183 356 -327 583 -382 72 -17 260 -18 4330 -18 4070 0 4258 1 4330 18
104 25 230 80 325 142 223 146 364 345 442 625 17 62 18 247 18 4330 0 4083
-1 4268 -18 4330 -44 157 -99 272 -187 388 -133 177 -307 294 -545 369 l-90
28 -4245 1 c-2335 1 -4267 -2 -4293 -6z m5860 -1761 c111 -15 174 -34 288 -89
259 -124 492 -400 602 -714 143 -407 91 -913 -143 -1406 -222 -467 -523 -844
-844 -1057 -79 -53 -184 -103 -260 -123 -64 -18 -204 -15 -271 4 -157 46 -344
216 -400 365 -17 44 -20 71 -16 129 6 105 0 99 237 264 181 126 293 220 460
388 409 407 605 764 635 1150 14 171 -24 315 -106 404 -58 64 -119 93 -222
106 -344 43 -668 -247 -1015 -910 -118 -226 -189 -396 -602 -1440 -521 -1317
-573 -1442 -782 -1862 -262 -531 -495 -889 -747 -1150 -62 -65 -111 -118 -109
-118 2 0 44 14 94 30 257 88 671 193 1004 254 604 111 1293 171 1516 132 372
-65 626 -251 728 -535 33 -91 47 -180 47 -301 1 -151 -40 -221 -135 -235 -63
-10 -135 9 -256 64 -139 65 -279 113 -456 156 -247 61 -439 85 -692 85 -391 0
-767 -48 -1527 -195 -630 -122 -717 -132 -839 -98 -53 14 -70 26 -131 88 -82
83 -153 198 -190 310 -24 70 -27 90 -21 160 8 112 39 171 114 220 210 139 435
526 684 1174 33 86 143 395 245 686 365 1046 502 1420 618 1700 210 504 464
990 696 1330 214 314 510 614 774 783 307 196 707 294 1022 251z"/>
</g>
</svg>
