<?xml version="1.0" standalone="no"?>
<!DOCTYPE svg PUBLIC "-//W3C//DTD SVG 20010904//EN"
 "http://www.w3.org/TR/2001/REC-SVG-20010904/DTD/svg10.dtd">
<svg version="1.0" xmlns="http://www.w3.org/2000/svg"
 width="1024.000000pt" height="1024.000000pt" viewBox="0 0 1024.000000 1024.000000"
 preserveAspectRatio="xMidYMid meet">
<metadata>
Created by potrace 1.11, written by Peter Selinger 2001-2013
</metadata>
<g transform="translate(0.000000,1024.000000) scale(0.100000,-0.100000)"
fill="#000000" stroke="none">
<path d="M854 10224 c-111 -18 -261 -74 -358 -131 -105 -63 -252 -204 -322
-309 -62 -93 -124 -235 -151 -346 -17 -69 -18 -291 -21 -4268 -3 -3207 -1
-4215 9 -4280 32 -231 135 -435 301 -596 141 -137 313 -231 501 -271 78 -17
297 -18 4307 -18 4010 0 4229 1 4307 18 194 42 379 144 519 289 152 155 241
330 279 548 13 74 15 606 15 4255 0 3670 -2 4181 -15 4263 -36 224 -141 421
-311 583 -146 140 -330 230 -539 264 -130 21 -8395 21 -8521 -1z m5139 -1961
c33 -76 43 -110 63 -218 25 -128 25 -448 0 -605 -92 -589 -332 -1377 -894
-2925 -325 -897 -405 -1126 -394 -1136 13 -11 405 -118 598 -163 459 -106
1026 -168 1234 -136 72 12 174 57 207 92 12 13 76 124 143 248 67 124 123 226
125 228 2 3 119 -25 248 -59 l37 -10 0 -100 c0 -310 -100 -812 -209 -1043
-155 -333 -457 -526 -822 -526 -217 0 -478 108 -979 405 -280 166 -563 312
-730 378 -176 69 -165 69 -230 -15 -78 -102 -268 -291 -385 -384 -181 -143
-387 -264 -475 -279 -28 -5 -44 0 -82 24 -131 84 -487 609 -543 803 -36 127
-18 172 112 284 188 160 452 302 665 358 l66 18 37 96 c228 594 502 1745 674
2832 59 370 112 775 112 848 0 165 -115 415 -323 705 l-41 57 12 70 c7 39 16
70 19 70 4 0 57 11 117 25 310 69 804 110 1366 113 l246 2 26 -57z"/>
</g>
</svg>
